<?xml version="1.0" ?><svg
  enable-background="new 0 0 40 40"
  height="512"
  id="Layer_1"
  version="1.1"
  viewBox="0 0 512 512"
  width="512"
  xml:space="preserve"
  xmlns="http://www.w3.org/2000/svg"
  xmlns:cc="http://creativecommons.org/ns#"
  xmlns:dc="http://purl.org/dc/elements/1.1/"
  xmlns:inkscape="http://www.inkscape.org/namespaces/inkscape"
  xmlns:rdf="http://www.w3.org/1999/02/22-rdf-syntax-ns#"
  xmlns:sodipodi="http://sodipodi.sourceforge.net/DTD/sodipodi-0.dtd"
  xmlns:svg="http://www.w3.org/2000/svg"
>
  <defs id="defs63">
    <style type="text/css">
      <![CDATA[
       .fil0 {fill:#777}
       .fil1 {fill:white}
      ]]>
    </style>
  </defs>
  <g
    fill="white"
    id="g2994"
    transform="matrix(2.0653993,0,0,2.0656125,-545.48347,-454.51285)"
  >
    <path
      class="fil0"
      d="m 388.04403,220.03781 c -68.44604,0 -123.93845,55.49241 -123.93845,123.93845 0,68.44604 55.49241,123.92992 123.93845,123.92992 68.44604,0 123.95551,-55.48388 123.95551,-123.92992 0,-68.44604 -55.50094,-123.93845 -123.95551,-123.93845 z m -2.87574,40.65291 c 11.96376,0 21.67472,9.70242 21.67472,21.67472 0,11.96376 -9.71096,21.65765 -21.67472,21.65765 -11.96376,0 -21.67472,-9.69389 -21.67472,-21.65765 0,-11.9723 9.71096,-21.67472 21.67472,-21.67472 z m 38.85236,153.72839 h -69.47004 v -4.99201 c 4.60801,-0.83627 7.89336,-1.54454 9.83043,-2.15041 1.9456,-0.6144 3.59254,-1.46774 4.95788,-2.56001 1.3568,-1.06667 2.42347,-2.74774 3.19147,-4.98348 0.75947,-2.2528 1.16907,-5.76001 1.16907,-10.52162 v -44.47585 c 0,-4.35201 -0.128,-7.85069 -0.36693,-10.50456 -0.23894,-2.65387 -1.05814,-4.77868 -2.46614,-6.37442 -1.42507,-1.59573 -3.60108,-2.7904 -6.48535,-3.57547 -2.90134,-0.768 -6.99735,-1.44214 -12.31363,-1.97974 v -5.41015 l 41.2929,-0.91307 h 10.82029 v 72.94312 c 0,5.85388 0.46081,9.91576 1.40801,12.2027 0.9472,2.28694 2.74774,4.01068 5.41868,5.19681 2.65387,1.19467 6.98028,2.22721 13.01336,3.11468 v 4.98348 z"
      id="path15"
    />
  </g>
</svg>
